<svg xmlns="http://www.w3.org/2000/svg" viewBox="0 0 110 26" width="220" height="52">
  <path fill="#783BF9" d="M17.65 8.4a10.02 10.02 0 0 1 3.02 7.3c0 2.86-1 5.3-3.02 7.28A10.05 10.05 0 0 1 10.34 26c-2.86 0-5.3-1-7.31-3.02A9.92 9.92 0 0 1 0 15.7V0h3.86v7.66a9.83 9.83 0 0 1 6.48-2.28c2.83 0 5.26 1 7.3 3.02zM16.3 18.2c.34-.78.5-1.62.5-2.5a6.2 6.2 0 0 0-.5-2.5 6.65 6.65 0 0 0-3.44-3.45 6.26 6.26 0 0 0-2.53-.51 6.3 6.3 0 0 0-4.6 1.9 6.58 6.58 0 0 0-1.88 4.56 6.57 6.57 0 0 0 3.93 5.95 6.3 6.3 0 0 0 2.55.51 6.56 6.56 0 0 0 5.97-3.97zM84.64 8.4a10.09 10.09 0 0 1 3.03 7.3c0 2.86-1.01 5.3-3.03 7.28a10.06 10.06 0 0 1-7.3 3.02c-2.86 0-5.3-1-7.32-3.02A9.92 9.92 0 0 1 67 15.7c0-2.85 1.01-5.28 3.03-7.29a9.98 9.98 0 0 1 7.31-3.02c2.83 0 5.27 1 7.31 3.02zM83.3 18.2c.34-.78.51-1.62.51-2.5 0-.88-.17-1.71-.5-2.5a6.64 6.64 0 0 0-3.45-3.45 6.25 6.25 0 0 0-2.53-.51 6.3 6.3 0 0 0-4.6 1.9 6.57 6.57 0 0 0-1.88 4.56 6.56 6.56 0 0 0 3.93 5.95c.8.34 1.64.51 2.55.51.9 0 1.74-.17 2.53-.51a6.58 6.58 0 0 0 3.44-3.45zm25.93-6.46c.5 1.22.76 2.54.77 3.96 0 2.87-1 5.3-3.03 7.3a10.05 10.05 0 0 1-7.3 3.01c-2.86 0-5.3-1-7.32-3.02a9.92 9.92 0 0 1-3.02-7.29c0-2.85 1-5.28 3.02-7.29a9.97 9.97 0 0 1 7.31-3.02c2.83 0 5.27 1 7.31 3.02 1.01 1 1.77 2.12 2.26 3.33zm-3.6 6.46c.34-.78.51-1.62.51-2.5a6.2 6.2 0 0 0-.5-2.5 6.65 6.65 0 0 0-3.45-3.45 6.26 6.26 0 0 0-2.53-.51 6.3 6.3 0 0 0-4.6 1.9 6.58 6.58 0 0 0-1.88 4.56 6.57 6.57 0 0 0 3.93 5.95 6.3 6.3 0 0 0 2.55.51 6.57 6.57 0 0 0 5.97-3.97zM61.48 7.65V0h3.86v15.7c0 2.86-1.01 5.3-3.03 7.28A10.05 10.05 0 0 1 55 26c-2.86 0-5.3-1-7.31-3.02a9.92 9.92 0 0 1-3.03-7.29c0-2.85 1.01-5.28 3.03-7.29A9.97 9.97 0 0 1 55 5.38c2.45 0 4.6.76 6.48 2.27zm-.5 10.54c.33-.78.5-1.62.5-2.5a6.2 6.2 0 0 0-.5-2.5 6.65 6.65 0 0 0-3.45-3.45A6.26 6.26 0 0 0 55 9.23a6.3 6.3 0 0 0-4.6 1.9 6.58 6.58 0 0 0-1.88 4.56 6.57 6.57 0 0 0 3.93 5.95 6.3 6.3 0 0 0 2.55.51 6.57 6.57 0 0 0 5.97-3.97zM43 15.69l-.01.28v9.83h-3.7v-2.76C37.89 25.08 35.2 26 32.68 26c-5.71 0-10.34-4.62-10.34-10.3 0-5.7 4.63-10.32 10.34-10.32C38.37 5.38 43 10 43 15.7zm-10.34 6.47c3.58 0 6.49-2.9 6.49-6.47a6.49 6.49 0 0 0-12.98 0 6.49 6.49 0 0 0 6.49 6.47z"/>
</svg>