<svg enable-background="new 0 0 512.003 512.003" height="512" viewBox="0 0 512.003 512.003" xmlns="http://www.w3.org/2000/svg"><g><g><path d="m170.921 236.266-47.438-4.722c-4.214-.419-8.054-2.601-10.572-6.005s-3.481-7.715-2.649-11.868l18.613-92.903c1.121-5.593 5.316-10.066 10.826-11.542 5.511-1.476 11.379.3 15.146 4.583l64.361 73.184c2.832 3.22 4.15 7.498 3.622 11.753s-2.853 8.082-6.386 10.512l-35.538 24.442c-2.511 1.726-9.49 2.616-9.985 2.566z" fill="#ffb454"/></g><g><path d="m324.448 243.389-31.846-36.95c-4.888-5.671-4.846-14.077.099-19.699l64.138-72.931c3.766-4.283 9.635-6.059 15.146-4.583 5.509 1.476 9.704 5.949 10.825 11.542l18.668 93.175c1.492 7.447-2.818 14.834-10.035 17.2 0 0-64.096 15.61-66.995 12.246z" fill="#ff8659"/></g><g><path d="m427.654 377.186h-343.305c-6.789 0-12.731-4.56-14.489-11.118l-69.348-258.808c-1.768-6.597 1.145-13.556 7.085-16.927 5.938-3.371 13.407-2.305 18.165 2.595l120.488 124.073c6.263 6.448 14.225 8.891 23.027 7.059 8.802-1.831 15.13-7.246 18.301-15.658l54.388-144.288c2.202-5.842 7.793-9.709 14.036-9.709s11.834 3.867 14.036 9.709l54.388 144.288c3.171 8.412 9.499 13.826 18.302 15.658 8.803 1.833 16.765-.611 23.027-7.06l120.486-124.072c4.759-4.9 12.228-5.967 18.165-2.595 5.94 3.372 8.853 10.33 7.085 16.927l-69.348 258.808c-1.758 6.558-7.7 11.118-14.489 11.118z" fill="#ffd845"/></g><path d="m504.406 90.333c-5.938-3.372-13.406-2.305-18.165 2.595l-120.486 124.072c-6.263 6.449-14.225 8.892-23.027 7.06-8.803-1.832-15.131-7.246-18.302-15.658l-54.388-144.288c-2.202-5.842-7.793-9.709-14.036-9.709v322.782h171.652c6.789 0 12.731-4.56 14.489-11.118l69.348-258.808c1.768-6.598-1.145-13.557-7.085-16.928z" fill="#ffb454"/><g><path d="m426.502 457.599h-341c-8.284 0-15-6.716-15-15v-75h371v75c0 8.285-6.716 15-15 15z" fill="#ffb454"/></g><g><path d="m255.002 337.405c-24.813 0-45-20.187-45-45s20.187-45 45-45 45 20.187 45 45-20.187 45-45 45z" fill="#ff4a4a"/></g><g><path clip-rule="evenodd" d="m153.638 322.404c8.262 0 15-6.738 15-15s-6.738-15-15-15-15 6.738-15 15c0 8.261 6.739 15 15 15z" fill="#4793ff" fill-rule="evenodd"/></g><g><path clip-rule="evenodd" d="m358.366 322.404c8.262 0 15-6.738 15-15s-6.738-15-15-15-15 6.738-15 15c0 8.261 6.739 15 15 15z" fill="#525cdd" fill-rule="evenodd"/></g><path d="m256.002 247.43v89.95c24.352-.536 44-20.497 44-44.975s-19.648-44.44-44-44.975z" fill="#d01273"/><path d="m256.002 367.599v90h170.5c8.284 0 15-6.716 15-15v-75z" fill="#ff8659"/></g></svg>