<svg xmlns="http://www.w3.org/2000/svg" viewBox="0 0 1754.5506 478.5031"><title>pickedo_4</title><path d="M1524.2557,334.62q-39.6167-39.6108-39.6152-95.4585,0-55.6032,39.6152-95.22,39.6123-39.6115,95.459-39.6157,55.604,0,95.2207,39.6157,39.6123,39.6174,39.6152,95.22,0,55.8435-39.6152,95.4585-39.6182,39.6168-95.2207,39.6153Q1563.872,374.2356,1524.2557,334.62Zm39.377-151.54q-23.3907,23.3905-23.3877,56.082,0,32.9334,23.3877,56.3208,23.1445,23.15,56.082,23.1485,32.9342,0,56.082-23.1485,23.146-23.3862,23.1495-56.3208,0-32.9333-23.1495-56.082-23.15-23.1453-56.082-23.1489Q1586.7821,159.9309,1563.6327,183.08Z" style="fill:#303030"/><path d="M1323.0459,374.2549c74.4258,0,134.9746-60.5493,134.9746-134.9746V.0835h-55.6v130.1a134.2419,134.2419,0,0,0-79.375-25.878c-74.4258,0-134.9756,60.55-134.9756,134.9751S1248.62,374.2549,1323.0459,374.2549Zm0-214.35A79.3753,79.3753,0,1,1,1243.67,239.28,79.4649,79.4649,0,0,1,1323.0459,159.9048Z" style="fill:#303030"/><path d="M1159.67,260.47s.0541-.3551.0865-.5656q.2913-1.8906.5293-3.789.4554-3.633.7139-7.287a134.4809,134.4809,0,1,0-15.7844,54.3665l-48.79-26.2833s-1.59,2.5531-1.9048,3.0785a79.3949,79.3949,0,0,1-142.1809-12.06,77.6189,77.6189,0,0,1-2.48-7.46ZM956.3965,201.8314a79.57,79.57,0,0,1,58.0953-41.04,79.1953,79.1953,0,0,1,61.8007,16.8512,80.5417,80.5417,0,0,1,19.5947,23.4058c.6964,1.2537,1.35,2.5311,1.9743,3.8222H954.8372C955.3324,203.845,955.8575,202.8343,956.3965,201.8314Z" style="fill:#303030"/><path d="M900.31,374.1987H832.0561l-78.754-112.6416L722.04,292.82v81.3789H666.435V0H722.04V214.0669L833.0524,104.3334H911.946l-118.55,117.1314Z" style="fill:#303030"/><path d="M513.7944,374.2841c-74.4258,0-134.9746-60.5493-134.9746-134.9746s60.5488-134.9751,134.9746-134.9751a135.0174,135.0174,0,0,1,126.0361,86.5923l-51.9043,19.9346a79.3749,79.3749,0,1,0-.832,58.9756l51.3144,21.4043A134.6724,134.6724,0,0,1,513.7944,374.2841Z" style="fill:#303030"/><path d="M353.16,1.3631c-9.6561-2.8975-18.4878-.8649-26.08,5.944-.8686.779-1.703,1.5966-2.584,2.3608a.5177.5177,0,0,1-.0523.0329.5291.5291,0,0,1-.0523-.0329c-.881-.7642-1.7154-1.5818-2.584-2.3608-7.5921-6.8089-16.4238-8.8415-26.08-5.944-16.7241,5.0182-24.2471,22.8343-16.891,40.2607,7.1688,16.9826,19.1325,29.9092,35.0444,39.1253a22.4862,22.4862,0,0,0,10.5611,3.1993h.0034a22.4862,22.4862,0,0,0,10.5611-3.1993c15.9119-9.2161,27.8756-22.1427,35.0444-39.1253C377.4067,24.1974,369.8837,6.3813,353.16,1.3631Z" style="fill:#fd005c"/><rect x="296.5945" y="104.3324" width="55.6045" height="269.8663" style="fill:#303030"/><path d="M134.9746,104.3317C60.5488,104.3317,0,164.881,0,239.3063V478.5031H55.6v-130.1a134.2422,134.2422,0,0,0,79.375,25.878c74.4258,0,134.9756-60.55,134.9756-134.9751S209.4,104.3317,134.9746,104.3317Zm0,214.35a79.3753,79.3753,0,1,1,79.376-79.3755A79.4649,79.4649,0,0,1,134.9746,318.6818Z" style="fill:#303030"/></svg>